<?xml version="1.0" standalone="no"?>
<!DOCTYPE svg PUBLIC "-//W3C//DTD SVG 20010904//EN"
 "http://www.w3.org/TR/2001/REC-SVG-20010904/DTD/svg10.dtd">
<svg version="1.0" xmlns="http://www.w3.org/2000/svg"
 width="1080.000000pt" height="1080.000000pt" viewBox="0 0 1080.000000 1080.000000"
 preserveAspectRatio="xMidYMid meet">
<metadata>
Created by potrace 1.14, written by Peter Selinger 2001-2017
</metadata>
<g transform="translate(0.000000,1080.000000) scale(0.100000,-0.100000)"
fill="#000000" stroke="none">
<path d="M0 5400 l0 -5400 5400 0 5400 0 0 5400 0 5400 -5400 0 -5400 0 0
-5400z m5620 2354 c454 -106 860 -338 1193 -683 330 -342 536 -745 634 -1241
26 -127 27 -152 27 -415 1 -223 -3 -300 -17 -380 -44 -250 -108 -448 -217
-670 -357 -731 -1052 -1233 -1856 -1340 -162 -22 -502 -22 -649 0 -297 44
-529 116 -787 245 -202 102 -432 265 -568 405 l-55 56 85 -8 c144 -13 473 -8
601 11 1017 145 1835 906 2039 1896 42 202 54 346 47 555 -11 339 -75 617
-212 925 -86 196 -256 455 -393 601 -34 37 -62 70 -62 74 0 9 61 -1 190 -31z"/>
</g>
</svg>
